# xmcd
# 
# Track frame offsets:
#     225
#     35714
#     66833
#     94331
#     135596
#     166973
#     190648
#     228100
#     265888
# 
# Disc length: 3732
# 
# Revision: 1
# Processed by: cddbd v1.5.2PL0 Copyright (c) Steve Scherf et al.
# Submitted via: BonkEnc v1.0.8
# 
DISCID=760e9109
DTITLE=Mark Trayle - Music For Electronics And Woodwinds
DYEAR=2001
DGENRE=Contemporary Jazz
TTITLE0=Selfish
TTITLE1=This Clown Is Crashing
TTITLE2=Cheapman And The Sweater He Cherished
TTITLE3=If You Feed The Bears They Come Back For More
TTITLE4=Imparticle
TTITLE5=Signature Metric
TTITLE6=Lazy Third Eye
TTITLE7=Gilbert Was Vague
TTITLE8=Behind The Fifty-Five Dollar Face
EXTD=YEAR: 2001
EXTT0=
EXTT1=
EXTT2=
EXTT3=
EXTT4=
EXTT5=
EXTT6=
EXTT7=
EXTT8=
PLAYORDER=
